<svg width="100" height="100" viewBox="0 0 100 100" fill="none" xmlns="http://www.w3.org/2000/svg">
<path d="M66.8401 44.4C66.8401 34.72 58.4801 27 48.5601 28.12C41.1601 28.96 35.1201 34.88 34.1601 42.28C33.5601 46.88 34.9201 51.16 37.4801 54.44C40.4001 58.2 41.8801 62.92 41.8801 67.72V68.4H59.0001V67.72C59.0001 62.76 60.7601 58.04 63.6801 54.08C65.6801 51.36 66.8401 48.04 66.8401 44.4Z" fill="#FCC12D"/>
<path d="M58.4811 72.8H42.3211C41.1211 72.8 40.1211 71.84 40.1211 70.6C40.1211 69.4 41.0811 68.4 42.3211 68.4H58.4811C59.6811 68.4 60.6811 69.36 60.6811 70.6C60.6811 71.8 59.6811 72.8 58.4811 72.8Z" fill="#46E6F2"/>
<path d="M57.2805 77.12H43.4805C42.3605 77.12 41.4805 76.2 41.4805 75.12V74.88C41.4805 73.76 42.4005 72.88 43.4805 72.88H57.2805C58.4005 72.88 59.2805 73.8 59.2805 74.88V75.12C59.3205 76.2 58.4005 77.12 57.2805 77.12Z" fill="#46E6F2"/>
<path d="M44.7207 78.16V78.2C44.7207 80 46.1607 81.44 47.9607 81.44H52.8407C54.6407 81.44 56.0807 80 56.0807 78.2V78.16C56.0807 77.6 55.6007 77.12 55.0407 77.12H45.7607C45.2007 77.12 44.7207 77.6 44.7207 78.16Z" fill="#46E6F2"/>
<path d="M65.5999 43.16C65.5999 33.48 57.2399 25.76 47.3199 26.88C39.9199 27.72 33.8799 33.64 32.9199 41.04C32.3199 45.64 33.6799 49.92 36.2399 53.2C39.1599 56.96 40.6399 61.68 40.6399 66.48V67.16H57.7599V66.48C57.7599 61.52 59.5199 56.8 62.4399 52.84C64.4399 50.12 65.5999 46.76 65.5999 43.16Z" stroke="#231F20" stroke-width="1.2" stroke-miterlimit="10" stroke-linecap="round" stroke-linejoin="round"/>
<path d="M56.0402 75.84H42.2402C41.1202 75.84 40.2402 74.92 40.2402 73.84V73.6C40.2402 72.48 41.1602 71.6 42.2402 71.6H56.0402C57.1602 71.6 58.0402 72.52 58.0402 73.6V73.84C58.0402 74.96 57.1602 75.84 56.0402 75.84Z" stroke="#231F20" stroke-width="1.2" stroke-miterlimit="10" stroke-linecap="round" stroke-linejoin="round"/>
<path d="M43.4404 76.88V76.92C43.4404 78.72 44.8804 80.16 46.6804 80.16H51.5604C53.3604 80.16 54.8004 78.72 54.8004 76.92V76.88C54.8004 76.32 54.3204 75.84 53.7604 75.84H44.4804C43.9204 75.84 43.4404 76.32 43.4404 76.88Z" stroke="#231F20" stroke-width="1.2" stroke-miterlimit="10" stroke-linecap="round" stroke-linejoin="round"/>
<path d="M37.8315 40.4052C39.0088 41.3734 41.3054 40.5263 42.9612 38.5131C44.6171 36.4999 45.0051 34.0829 43.8278 33.1147C42.6506 32.1464 40.354 32.9935 38.6981 35.0068C37.0423 37.02 36.6543 39.4369 37.8315 40.4052Z" fill="white"/>
<path d="M52.8406 52L49.2006 66.84L45.6006 52" stroke="white" stroke-width="1.2" stroke-miterlimit="10" stroke-linecap="round" stroke-linejoin="round"/>
<path d="M42.6797 50.2C44.3197 50.2 44.3197 51.56 45.9197 51.56C47.5597 51.56 47.5597 50.2 49.1597 50.2C50.7997 50.2 50.7997 51.56 52.3997 51.56C54.0397 51.56 54.0397 50.2 55.6397 50.2" stroke="white" stroke-width="1.2" stroke-miterlimit="10" stroke-linecap="round" stroke-linejoin="round"/>
<path d="M49.2002 22.6V16.32" stroke="#231F20" stroke-width="1.2" stroke-miterlimit="10" stroke-linecap="round" stroke-linejoin="round"/>
<path d="M60.3604 24.08L63.2004 18.48" stroke="#231F20" stroke-width="1.2" stroke-miterlimit="10" stroke-linecap="round" stroke-linejoin="round"/>
<path d="M67.96 30.36L71.72 27.88" stroke="#231F20" stroke-width="1.2" stroke-miterlimit="10" stroke-linecap="round" stroke-linejoin="round"/>
<path d="M70.6797 39.12L73.7197 38.64" stroke="#231F20" stroke-width="1.2" stroke-miterlimit="10" stroke-linecap="round" stroke-linejoin="round"/>
<path d="M38.0402 24.08L35.2002 18.48" stroke="#231F20" stroke-width="1.2" stroke-miterlimit="10" stroke-linecap="round" stroke-linejoin="round"/>
<path d="M30.4397 30.36L26.6797 27.88" stroke="#231F20" stroke-width="1.2" stroke-miterlimit="10" stroke-linecap="round" stroke-linejoin="round"/>
<path d="M27.7197 39.12L24.6797 38.64" stroke="#231F20" stroke-width="1.2" stroke-miterlimit="10" stroke-linecap="round" stroke-linejoin="round"/>
<path d="M57.1998 71.52H41.0398C39.8398 71.52 38.8398 70.56 38.8398 69.32C38.8398 68.12 39.7998 67.12 41.0398 67.12H57.1998C58.3998 67.12 59.3998 68.08 59.3998 69.32C59.3998 70.56 58.3998 71.52 57.1998 71.52Z" stroke="#231F20" stroke-width="1.2" stroke-miterlimit="10" stroke-linecap="round" stroke-linejoin="round"/>
</svg>
