<svg width="14" height="15" viewBox="0 0 14 15" fill="none" xmlns="http://www.w3.org/2000/svg">
<path d="M8.03542 7.0925C8.28487 7.33691 8.48304 7.62864 8.61833 7.95059C8.75362 8.27255 8.82331 8.61827 8.82331 8.9675C8.82331 9.31673 8.75362 9.66244 8.61833 9.9844C8.48304 10.3064 8.28487 10.5981 8.03542 10.8425L5.89042 12.95C5.64601 13.1994 5.35429 13.3976 5.03233 13.5329C4.71037 13.6682 4.36465 13.7379 4.01542 13.7379C3.66619 13.7379 3.32048 13.6682 2.99852 13.5329C2.67656 13.3976 2.38483 13.1994 2.14042 12.95C1.89097 12.7056 1.6928 12.4139 1.55751 12.0919C1.42222 11.7699 1.35254 11.4242 1.35254 11.075C1.35254 10.7258 1.42222 10.3801 1.55751 10.0581C1.6928 9.73613 1.89097 9.44441 2.14042 9.2L2.78542 8.555" stroke="#AAAAAA" stroke-width="2" stroke-linecap="round" stroke-linejoin="round"/>
<path d="M5.78788 7.64538C5.53843 7.40097 5.34026 7.10925 5.20497 6.78729C5.06969 6.46533 5 6.11961 5 5.77038C5 5.42115 5.06969 5.07544 5.20497 4.75348C5.34026 4.43152 5.53843 4.13979 5.78788 3.89538L7.89538 1.78788C8.13979 1.53843 8.43152 1.34026 8.75348 1.20497C9.07544 1.06968 9.42115 1 9.77038 1C10.1196 1 10.4653 1.06968 10.7873 1.20497C11.1092 1.34026 11.401 1.53843 11.6454 1.78788C11.8948 2.03229 12.093 2.32402 12.2283 2.64598C12.3636 2.96794 12.4333 3.31365 12.4333 3.66288C12.4333 4.01211 12.3636 4.35783 12.2283 4.67979C12.093 5.00175 11.8948 5.29347 11.6454 5.53788L11.0004 6.18288" stroke="#AAAAAA" stroke-width="2" stroke-linecap="round" stroke-linejoin="round"/>
</svg>
