<svg width="313" height="246" viewBox="0 0 313 246" fill="none" xmlns="http://www.w3.org/2000/svg">
<g clip-path="url(#clip0_963_5233)">
<path d="M94.7431 94.8542C93.0681 92.6836 90.7009 90.6752 90.551 87.9966C90.4136 85.5399 92.2452 83.1008 91.4728 80.7505C90.8788 78.9433 88.9194 77.8529 87.0047 77.2755C83.339 76.1859 79.4162 76.3369 75.8451 77.7052L76.0389 77.5685C73.8593 76.792 71.3116 77.5936 69.5968 79.0783C67.8818 80.5631 66.8627 82.6211 66.0719 84.6834C65.281 86.7457 64.6683 88.8835 63.5695 90.817C62.4705 92.7504 60.7881 94.5088 58.5684 95.177C59.3115 96.6595 61.6345 97.1681 62.997 96.1465C63.3451 95.8638 63.6579 95.5403 63.9289 95.183C64.8375 94.0779 65.7462 92.9728 66.655 91.8677C67.59 93.5309 66.1932 95.8264 67.3425 97.3662C67.9351 98.1602 69.0175 98.4617 70.0227 98.678C77.8797 100.355 86.03 100.052 93.7411 97.7981C94.3609 97.6155 95.0447 97.3639 95.3018 96.8029C95.5987 96.1552 95.1835 95.425 94.7431 94.8542Z" fill="#2F2E41"/>
<path d="M117.019 103.325C116.97 103.541 116.938 103.76 116.924 103.981L99.7509 113.889L95.5768 111.486L91.127 117.312L98.103 122.285C98.6665 122.687 99.3452 122.895 100.037 122.878C100.729 122.861 101.397 122.62 101.94 122.192L119.648 108.22C120.447 108.515 121.318 108.561 122.143 108.35C122.969 108.139 123.711 107.682 124.27 107.039C124.83 106.396 125.18 105.598 125.275 104.751C125.37 103.904 125.205 103.048 124.802 102.297C124.398 101.547 123.776 100.936 123.018 100.548C122.259 100.159 121.4 100.011 120.556 100.123C119.711 100.234 118.92 100.6 118.288 101.172C117.657 101.745 117.214 102.495 117.019 103.325H117.019Z" fill="#FFB7B7"/>
<path d="M99.1769 114.359L93.6266 121.553C93.4687 121.758 93.2685 121.926 93.0397 122.046C92.8109 122.167 92.5589 122.236 92.3008 122.25C92.0426 122.264 91.7845 122.223 91.5439 122.128C91.3034 122.034 91.086 121.888 90.9067 121.702L84.6235 115.176C83.5807 114.362 82.9032 113.168 82.7396 111.855C82.5759 110.542 82.9396 109.218 83.7507 108.173C84.5618 107.128 85.7542 106.448 87.0664 106.28C88.3786 106.113 89.7035 106.474 90.7505 107.282L98.631 111.689C98.8566 111.816 99.0524 111.989 99.2049 112.198C99.3575 112.407 99.4632 112.646 99.515 112.899C99.5668 113.152 99.5634 113.414 99.5051 113.666C99.4467 113.918 99.3348 114.154 99.1769 114.359H99.1769Z" fill="#A4C6EC"/>
<path d="M91.5402 239.712L96.441 239.712L98.7725 220.805L91.5391 220.806L91.5402 239.712Z" fill="#FFB7B7"/>
<path d="M90.2891 238.112L99.941 238.112H99.9414C101.573 238.112 103.137 238.76 104.291 239.914C105.444 241.067 106.092 242.632 106.092 244.263V244.463L90.2893 244.464L90.2891 238.112Z" fill="#2F2E41"/>
<path d="M57.9597 239.712L62.8609 239.712L65.1924 220.805L57.959 220.806L57.9597 239.712Z" fill="#FFB7B7"/>
<path d="M56.709 238.112L66.3609 238.112H66.3613C67.9926 238.112 69.557 238.76 70.7105 239.914C71.864 241.067 72.5121 242.632 72.5122 244.263V244.463L56.7093 244.464L56.709 238.112Z" fill="#2F2E41"/>
<path d="M88.5954 92.1814C89.1058 87.5308 85.7501 83.3468 81.1001 82.8363C76.4501 82.3258 72.2667 85.682 71.7563 90.3327C71.2458 94.9834 74.6016 99.1673 79.2516 99.6779C83.9016 100.188 88.0849 96.8321 88.5954 92.1814Z" fill="#FFB7B7"/>
<path d="M85.1331 103.957L90.1231 106.429C90.1231 106.429 95.6984 116.119 92.5003 125.315C90.9476 129.78 95.32 144.012 95.32 144.012C95.32 144.012 102.095 208.478 102.116 228.375C93.6996 229.669 85.7043 231.268 85.3046 227.27C84.9048 223.272 80.5288 175.998 80.5288 175.998C80.5288 175.998 74.5109 228.47 69.7138 229.269C64.9166 230.069 55.3223 228.869 55.3223 228.869C55.3223 228.869 62.9392 152.009 68.1361 147.211L68.9356 143.213L68.9142 107.323L74.9017 104.466L85.1331 103.957Z" fill="#2F2E41"/>
<path d="M67.2819 158.44C67.8341 158.142 68.3141 157.725 68.688 157.221C69.0619 156.717 69.3207 156.136 69.4462 155.521C69.5716 154.906 69.5606 154.27 69.414 153.66C69.2674 153.049 68.9887 152.478 68.5976 151.987L74.4009 113.3L66.819 112.936L62.2953 151.463C61.5138 152.175 61.0205 153.149 60.9089 154.2C60.7973 155.251 61.0752 156.307 61.6899 157.167C62.3045 158.027 63.2133 158.632 64.244 158.866C65.2746 159.101 66.3555 158.95 67.2819 158.44Z" fill="#FFB7B7"/>
<path d="M74.2356 122.993L65.168 122.421C64.91 122.404 64.6585 122.333 64.4308 122.21C64.203 122.088 64.0042 121.918 63.848 121.712C63.6918 121.506 63.5818 121.269 63.5255 121.017C63.4693 120.764 63.4681 120.503 63.522 120.25L65.4113 111.39C65.502 110.07 66.1123 108.84 67.1084 107.969C68.1045 107.099 69.4051 106.659 70.725 106.746C72.0449 106.833 73.2763 107.441 74.1493 108.435C75.0222 109.429 75.4654 110.728 75.3816 112.049L76.1415 121.047C76.1632 121.304 76.1291 121.564 76.0416 121.807C75.954 122.05 75.8151 122.272 75.6342 122.456C75.4533 122.641 75.2348 122.785 74.9934 122.877C74.7521 122.97 74.4936 123.01 74.2356 122.993H74.2356Z" fill="#A4C6EC"/>
<path d="M89.0533 85.7503C88.7232 84.2528 87.6512 83.0121 86.4161 82.1034C84.3802 80.6056 81.8835 79.8692 79.3608 80.0227C76.838 80.1761 74.4489 81.2096 72.6094 82.9431C71.5816 83.8511 70.8407 85.0389 70.4771 86.3613C70.3037 87.0223 70.2944 87.7156 70.4502 88.381C70.6059 89.0463 70.9218 89.6635 71.3705 90.1788L71.5398 90.2849C71.3863 89.6339 71.8919 88.9835 72.4958 88.6964C73.124 88.4658 73.7796 88.3188 74.4461 88.259C75.4543 88.0685 76.41 87.6636 77.2484 87.0719C78.0868 86.4802 78.7884 85.7154 79.3059 84.8292C79.6893 85.92 80.3018 86.9159 81.1022 87.7502C81.9026 88.5844 82.8723 89.2376 83.9461 89.6657C85.0656 90.1035 88.1403 90.7056 89.2061 90.1497C90.5656 89.4407 89.3833 87.2478 89.0533 85.7503Z" fill="#2F2E41"/>
<path d="M26.7313 228.033C28.1968 228.549 29.7704 228.678 31.3003 228.408C32.8302 228.139 34.265 227.48 35.4663 226.494C38.5257 223.926 39.4851 219.696 40.2654 215.778L42.574 204.19L37.7409 207.518C34.2649 209.912 30.7109 212.382 28.3045 215.849C25.898 219.316 24.8481 224.049 26.7811 227.801" fill="#E6E6E6"/>
<path d="M27.4767 242.87C26.8684 238.437 26.2425 233.948 26.6703 229.468C27.0493 225.489 28.263 221.603 30.734 218.416C32.0456 216.728 33.6416 215.281 35.4502 214.142C35.9217 213.844 36.3558 214.591 35.8863 214.888C32.7569 216.866 30.3363 219.787 28.9736 223.229C27.4687 227.057 27.227 231.231 27.4862 235.297C27.6429 237.757 27.9759 240.2 28.3103 242.64C28.3367 242.75 28.3202 242.867 28.2642 242.965C28.2081 243.064 28.1167 243.138 28.0084 243.171C27.898 243.201 27.7802 243.186 27.6807 243.13C27.5812 243.073 27.5081 242.98 27.477 242.869L27.4767 242.87Z" fill="#F2F2F2"/>
<path d="M31.8555 235.758C32.4839 236.713 33.3479 237.491 34.3641 238.016C35.3804 238.54 36.5146 238.794 37.6575 238.753C40.5954 238.614 43.0436 236.564 45.2473 234.617L51.7669 228.86L47.4522 228.654C44.3493 228.505 41.1663 228.366 38.2108 229.324C35.2554 230.282 32.5298 232.584 31.9894 235.644" fill="#E6E6E6"/>
<path d="M25.758 245.418C28.6867 240.235 32.0834 234.475 38.1533 232.634C39.8409 232.124 41.6104 231.942 43.3666 232.096C43.9202 232.144 43.782 232.997 43.2295 232.95C40.2856 232.705 37.3474 233.483 34.9095 235.151C32.5636 236.748 30.7369 238.968 29.191 241.323C28.244 242.765 27.3957 244.269 26.5475 245.77C26.2764 246.25 25.4838 245.903 25.758 245.418Z" fill="#F2F2F2"/>
<path d="M223.66 149.603C218.164 142.248 208.106 140.473 203.108 144.208C198.109 147.944 196.961 158.094 202.457 165.45C207.544 172.258 216.76 174.115 221.836 171.564C221.82 171.644 221.819 171.726 221.833 171.806L222.12 173.221C222.141 173.329 222.19 173.429 222.262 173.513C222.334 173.597 222.425 173.66 222.528 173.699C222.632 173.737 222.743 173.748 222.852 173.731C222.96 173.714 223.063 173.67 223.15 173.602L225.573 171.708C225.66 171.64 225.728 171.552 225.771 171.45C225.813 171.349 225.83 171.238 225.818 171.129C225.806 171.019 225.766 170.915 225.702 170.825C225.638 170.735 225.553 170.663 225.453 170.616L224.149 169.996C224.104 169.976 224.055 169.96 224.006 169.951C227.919 165.814 228.758 156.427 223.66 149.603Z" fill="#CCCCCC"/>
<path d="M211.639 146.826C214.328 147.253 216.749 148.696 218.405 150.858C220.06 153.019 220.822 155.733 220.535 158.44C220.476 159.06 221.444 159.056 221.503 158.44C221.78 155.522 220.944 152.608 219.163 150.28C217.381 147.953 214.785 146.386 211.897 145.892C211.287 145.789 211.025 146.722 211.639 146.826Z" fill="white"/>
<path d="M232.617 22.4566C237.421 14.6321 235.356 4.62789 230.039 1.36206C224.722 -1.90376 214.867 0.77813 210.062 8.60268C205.615 15.8453 207.293 25.0969 211.538 28.8728C211.458 28.887 211.381 28.9164 211.312 28.9593L210.103 29.748C210.011 29.8081 209.936 29.8908 209.885 29.9882C209.833 30.0856 209.808 30.1945 209.811 30.3045C209.813 30.4145 209.844 30.522 209.9 30.6168C209.956 30.7116 210.035 30.7906 210.13 30.8461L212.785 32.3992C212.88 32.4548 212.987 32.4852 213.097 32.4875C213.207 32.4897 213.316 32.4639 213.413 32.4123C213.51 32.3607 213.593 32.2851 213.653 32.1927C213.712 32.1003 213.748 31.9941 213.755 31.8843L213.849 30.4436C213.852 30.3934 213.848 30.343 213.838 30.2937C219.128 32.4023 228.16 29.715 232.617 22.4566Z" fill="#CCCCCC"/>
<path d="M230.758 10.2582C231.354 12.9145 230.907 15.6983 229.511 18.035C228.114 20.3717 225.874 22.0829 223.252 22.8154C222.654 22.9895 223.016 23.8885 223.61 23.7154C226.423 22.8953 228.823 21.0417 230.327 18.5263C231.831 16.0108 232.329 13.0196 231.721 10.1525C231.592 9.5477 230.628 9.64889 230.758 10.2582Z" fill="white"/>
<path d="M147.469 59.5821C147.067 50.4085 139.753 43.2781 133.519 43.5512C127.286 43.8243 120.623 51.567 121.025 60.7406C121.397 69.2318 127.969 75.9556 133.6 76.7056C133.542 76.7622 133.495 76.8294 133.462 76.9037L132.902 78.2344C132.859 78.3358 132.843 78.4465 132.855 78.5559C132.867 78.6653 132.907 78.7697 132.971 78.8594C133.035 78.949 133.12 79.0209 133.22 79.0681C133.319 79.1153 133.429 79.1363 133.539 79.1291L136.608 78.9286C136.717 78.9215 136.824 78.8864 136.916 78.8266C137.008 78.7669 137.084 78.6845 137.136 78.5873C137.187 78.4901 137.213 78.3813 137.211 78.2713C137.209 78.1612 137.178 78.0536 137.123 77.9586L136.395 76.7121C136.368 76.6692 136.337 76.6296 136.301 76.5941C141.864 75.3778 147.841 68.0918 147.469 59.5821Z" fill="#A4C6EC"/>
<path d="M139.096 50.5185C141.078 52.3851 142.267 54.9413 142.419 57.6595C142.57 60.3776 141.672 63.0503 139.911 65.1257C139.513 65.605 140.316 66.1471 140.711 65.671C142.583 63.4154 143.532 60.5357 143.37 57.6092C143.207 54.6827 141.944 51.9258 139.835 49.8915C139.389 49.4627 138.647 50.0864 139.096 50.5185Z" fill="white"/>
<path d="M176.05 120.439C173.648 120.287 171.315 119.569 169.243 118.341C167.172 117.114 165.421 115.413 164.134 113.379C163.773 112.802 163.302 112.168 163.552 111.458C163.639 111.186 163.815 110.951 164.053 110.792C164.291 110.634 164.575 110.56 164.86 110.584C165.596 110.674 166.071 111.394 166.162 112.085C166.265 112.868 165.713 113.482 165.031 113.773C163.364 114.484 161.683 113.386 160.325 112.509C157.232 110.511 153.83 108.704 150.082 108.476C146.615 108.265 142.896 109.625 140.967 112.633C140.63 113.159 141.468 113.645 141.803 113.122C143.716 110.139 147.583 109.067 150.946 109.528C152.949 109.845 154.884 110.502 156.666 111.471C157.59 111.951 158.487 112.482 159.365 113.041C160.201 113.625 161.086 114.132 162.012 114.559C163.555 115.193 165.598 115.143 166.677 113.684C167.682 112.322 166.905 110.054 165.223 109.671C164.854 109.598 164.472 109.618 164.113 109.729C163.754 109.84 163.427 110.038 163.163 110.306C162.9 110.575 162.706 110.904 162.601 111.265C162.496 111.626 162.482 112.008 162.56 112.376C162.728 113.178 163.332 113.963 163.799 114.618C165.204 116.594 167.033 118.23 169.154 119.405C171.274 120.58 173.631 121.264 176.05 121.407C176.673 121.438 176.672 120.469 176.05 120.439L176.05 120.439Z" fill="#CCCCCC"/>
<path d="M269.05 53.7104C271.701 52.4769 274.956 52.0725 277.654 53.2187C280.352 54.365 282.191 57.303 281.318 59.9032C280.923 61.082 280.022 62.2414 280.373 63.432C280.643 64.3485 281.585 64.9535 282.511 65.3837C283.436 65.8139 284.448 66.1756 285.118 66.9012C285.787 67.6268 285.927 68.8759 285.091 69.4386C284.815 69.624 284.471 69.7119 284.204 69.9073C283.976 70.0923 283.812 70.3437 283.734 70.6264C283.656 70.9092 283.668 71.2093 283.769 71.4848C283.991 72.0392 284.359 72.5233 284.834 72.8861C285.783 73.7047 287.037 74.6416 286.742 75.8037C286.633 76.1142 286.45 76.3938 286.21 76.6187C285.97 76.8436 285.678 77.0072 285.361 77.0956C284.703 77.2856 284.019 77.3758 283.334 77.3632L255.329 78.2456C254.405 78.315 253.475 78.2631 252.564 78.0911C252.121 78.0103 251.7 77.839 251.326 77.588C250.953 77.337 250.635 77.0115 250.393 76.6321C249.856 75.6393 250.208 74.4163 250.871 73.4892C251.533 72.5622 252.47 71.8309 253.245 70.9796C254.019 70.1283 254.653 69.0656 254.516 67.9654C254.407 67.0846 253.826 66.3234 253.409 65.5232C252.992 64.7229 252.75 63.7229 253.29 62.9866C254.051 61.9492 255.878 62.0431 256.743 61.0764C257.396 60.3469 257.27 59.2966 257.335 58.3559C257.491 56.093 259.057 53.9559 261.287 52.9636C262.421 52.4767 263.655 52.2666 264.886 52.3504C266.117 52.4343 267.31 52.8098 268.368 53.4458L269.05 53.7104Z" fill="#2F2E41"/>
<path d="M303.156 165.693V170.274L285.49 172.453L285.491 165.693L303.156 165.693Z" fill="#9E616A"/>
<path d="M307.595 164.525L307.595 179.295H307.408C305.884 179.295 304.422 178.689 303.344 177.611C302.266 176.533 301.66 175.071 301.66 173.546V173.546L301.661 164.525L307.595 164.525Z" fill="#2F2E41"/>
<path d="M281.317 173.485L280.193 177.925L262.533 175.701L264.193 169.147L281.317 173.485Z" fill="#9E616A"/>
<path d="M285.909 173.443L282.284 187.76L282.102 187.714C280.625 187.34 279.356 186.394 278.576 185.084C277.796 183.774 277.567 182.208 277.941 180.73L277.942 180.73L280.156 171.985L285.909 173.443Z" fill="#2F2E41"/>
<path d="M276.808 122.117L277.762 123.111C277.762 123.111 283.986 127.992 279.381 140.851L271.848 162.554L297.097 163.539L296.556 173.457C296.556 173.457 259.94 175.494 260.26 169.458C260.581 163.423 261.932 141.076 261.932 141.076L254.324 134.966L256.158 124.632L276.808 122.117Z" fill="#2F2E41"/>
<path d="M257.249 131.967L254.324 134.966L244.516 161.929C244.516 161.929 243.022 168.654 246.384 170.148C249.746 171.643 271.38 180.003 271.38 180.003L273.589 172.051L256.92 162.045L264.689 151.841L265.858 135.758L257.249 131.967Z" fill="#2F2E41"/>
<path d="M257.405 84.4019L282.298 79.4237L282.839 93.0829L276.391 106.829L277.762 123.111L255.453 127.009L256.151 105.599C256.151 105.599 250.16 97.1461 253.689 88.6256L257.405 84.4019Z" fill="#E4E4E4"/>
<path d="M312.911 51.9992C313.036 52.5725 313.034 53.1663 312.904 53.7386C312.775 54.3109 312.521 54.8478 312.162 55.3116C311.803 55.7754 311.346 56.1547 310.824 56.4228C310.302 56.6909 309.728 56.8413 309.141 56.8635L285.271 84.5479L279.721 77.8116L304.93 52.7169C304.958 51.7293 305.348 50.7865 306.024 50.0668C306.701 49.3472 307.618 48.9009 308.602 48.8125C309.586 48.724 310.568 48.9995 311.362 49.5869C312.156 50.1742 312.708 51.0325 312.911 51.9992Z" fill="#9E616A"/>
<path d="M290.469 81.5271C290.475 81.7857 290.425 82.0424 290.322 82.2798C290.219 82.5171 290.067 82.7296 289.875 82.9026L283.162 88.9459C282.32 89.9658 281.107 90.61 279.79 90.7373C278.474 90.8645 277.16 90.4644 276.138 89.6247C275.116 88.7849 274.468 87.5741 274.337 86.2576C274.206 84.941 274.602 83.6262 275.439 82.6014L280.124 74.8451C280.258 74.6238 280.438 74.4339 280.651 74.2883C280.865 74.1427 281.108 74.045 281.363 74.0016C281.618 73.9583 281.879 73.9704 282.129 74.0372C282.379 74.1039 282.611 74.2237 282.81 74.3885L289.816 80.178C290.016 80.3427 290.177 80.5485 290.29 80.7813C290.403 81.0141 290.464 81.2685 290.469 81.5271Z" fill="#E4E4E4"/>
<path d="M218.373 117.06C218.336 116.474 218.428 115.887 218.641 115.341C218.855 114.795 219.186 114.302 219.611 113.897C220.036 113.493 220.545 113.186 221.101 112.999C221.657 112.812 222.248 112.75 222.83 112.816L250.585 89.0273L255.061 96.5203L226.372 117.548C226.196 118.52 225.67 119.394 224.893 120.004C224.116 120.613 223.142 120.917 222.156 120.857C221.17 120.797 220.24 120.377 219.543 119.677C218.846 118.977 218.43 118.046 218.373 117.06V117.06Z" fill="#9E616A"/>
<path d="M244.992 91.234C245.025 90.9775 245.113 90.7312 245.25 90.5119C245.387 90.2927 245.57 90.1055 245.786 89.9633L253.329 84.9958C254.315 84.1136 255.61 83.6586 256.931 83.7303C258.252 83.802 259.491 84.3947 260.376 85.3784C261.261 86.3621 261.719 87.6566 261.651 88.978C261.583 90.2994 260.994 91.5399 260.013 92.4275L254.217 99.3929C254.052 99.5916 253.845 99.7524 253.612 99.8642C253.379 99.9761 253.125 100.036 252.866 100.041C252.608 100.046 252.351 99.9943 252.114 99.8908C251.877 99.7873 251.665 99.634 251.493 99.4412L245.435 92.6658C245.262 92.4731 245.133 92.2454 245.057 91.9983C244.98 91.7512 244.958 91.4905 244.992 91.234Z" fill="#E4E4E4"/>
<path d="M268.015 78.0285C273.082 78.0285 277.19 73.92 277.19 68.852C277.19 63.7839 273.082 59.6754 268.015 59.6754C262.948 59.6754 258.84 63.7839 258.84 68.852C258.84 73.92 262.948 78.0285 268.015 78.0285Z" fill="#9E616A"/>
<path d="M277.401 67.5473C274.504 67.3146 272.098 64.4196 272.399 61.5279C272.433 62.7198 272.028 63.8826 271.261 64.7951C270.493 65.7076 269.417 66.3061 268.237 66.4768C266.908 66.6233 265.451 66.2211 264.294 66.8917C263.013 67.6345 262.603 69.4383 261.268 70.0798C259.978 70.6996 258.34 69.8542 257.703 68.5728C257.066 67.2914 257.222 65.7519 257.644 64.3845C258.247 62.4344 259.343 60.6735 260.827 59.2728C262.312 57.8722 264.133 56.8796 266.115 56.3916C268.096 55.9036 270.17 55.9367 272.135 56.4879C274.1 57.039 275.889 58.0893 277.327 59.5367C278.546 60.7624 279.513 62.3245 279.67 64.0457C279.827 65.7668 279.029 67.6344 277.483 68.4077L277.401 67.5473Z" fill="#2F2E41"/>
<path d="M142.703 245.06H0.373568C0.274492 245.06 0.179479 245.02 0.109421 244.95C0.0393634 244.88 0 244.785 0 244.686C0 244.587 0.0393634 244.492 0.109421 244.422C0.179479 244.352 0.274492 244.312 0.373568 244.312H142.703C142.802 244.312 142.897 244.352 142.967 244.422C143.037 244.492 143.077 244.587 143.077 244.686C143.077 244.785 143.037 244.88 142.967 244.95C142.897 245.02 142.802 245.06 142.703 245.06Z" fill="#CACACA"/>
</g>
<defs>
<clipPath id="clip0_963_5233">
<rect width="313" height="246" fill="white"/>
</clipPath>
</defs>
</svg>
