<svg width="199" height="60" viewBox="0 0 199 60" fill="none" xmlns="http://www.w3.org/2000/svg">
<path d="M75.2289 26.4577L79.3601 6.71515H87.9225L88.289 20.1455L94.186 6.71515H102.582L98.5172 26.4577H93.7862L97.1179 10.0056V10.0727L89.1552 26.4577H84.291L83.4914 9.66982L79.9598 26.4577H75.2289Z" fill="#00A1E4"/>
<path d="M101.016 26.4577L105.18 6.71515H119.94L119.14 10.5428H109.945L109.078 14.5719H117.608L116.808 18.4667H108.112L107.213 22.6301H116.608L115.775 26.4577H101.016Z" fill="#00A1E4"/>
<path d="M129.935 6.71515C136.598 6.71515 140.496 9.26691 138.963 16.5529C137.431 23.8388 132.5 26.3906 125.637 26.3906H117.641L121.805 6.71515H129.935ZM123.838 22.6301H126.403C128.033 22.5792 129.599 21.9743 130.844 20.9137C132.09 19.8531 132.944 18.3991 133.266 16.7879C133.565 16.0907 133.681 15.3278 133.602 14.5725C133.524 13.8173 133.255 13.0949 132.82 12.4747C132.385 11.8545 131.8 11.3573 131.119 11.0307C130.439 10.7042 129.687 10.5593 128.935 10.6099H126.403L123.838 22.6301Z" fill="#00A1E4"/>
<path d="M146.26 15.3106C146.698 14.3296 147.435 13.5146 148.363 12.9835C149.291 12.4523 150.363 12.2325 151.424 12.3559L150.558 16.7879H149.458C146.793 16.7879 145.527 18.4331 145.06 21.0185L143.928 26.4577H138.764L140.929 16.385C141.179 15.2771 141.368 14.1562 141.496 13.0274H146.593L146.26 15.3106Z" fill="#00A1E4"/>
<path d="M157.854 26.4577C157.863 25.8221 157.953 25.1903 158.121 24.5775V24.5775C157.547 25.3186 156.807 25.912 155.961 26.3089C155.115 26.7058 154.189 26.8949 153.256 26.8606C149.925 26.8606 148.725 25.1147 149.392 22.2943C150.058 19.4739 153.456 17.6273 157.887 17.6273H159.52C159.753 16.4185 160.386 14.6726 158.32 14.7398C157.806 14.8177 157.329 15.0578 156.958 15.4257C156.586 15.7936 156.34 16.2704 156.255 16.7879H151.424C151.582 15.9511 151.955 15.1704 152.504 14.5227C153.053 13.8751 153.76 13.3828 154.556 13.0945C156.101 12.5206 157.74 12.2472 159.387 12.2887C162.152 12.2887 165.217 13.4639 164.551 16.5529L163.051 23.503C163.051 24.0738 163.051 24.6782 162.752 26.3234L157.854 26.4577ZM155.788 23.8388C157.987 23.8388 158.62 21.7571 159.12 19.944C158.157 19.8496 157.184 19.9407 156.255 20.2126C155.834 20.3469 155.455 20.5869 155.151 20.91C154.848 21.2331 154.632 21.6286 154.522 22.0593C154.461 22.2619 154.446 22.4761 154.48 22.6852C154.514 22.8943 154.596 23.0927 154.718 23.2649C154.841 23.4371 155.001 23.5785 155.187 23.6781C155.372 23.7776 155.578 23.8326 155.788 23.8388V23.8388Z" fill="#00A1E4"/>
<path d="M172.313 14.2697C172.915 13.6486 173.636 13.1583 174.432 12.8292C175.229 12.5 176.084 12.3389 176.944 12.3559C177.572 12.2798 178.208 12.3642 178.795 12.6011C179.381 12.838 179.899 13.2199 180.301 13.7116C180.702 14.2033 180.975 14.7889 181.093 15.4145C181.211 16.0402 181.17 16.6857 180.976 17.2915L179.043 26.4577H173.913L175.612 18.3995C175.845 17.0565 175.812 15.6127 174.246 15.6127C171.68 15.6127 171.414 18.4331 171.381 18.601L169.715 26.4577H164.584L166.75 16.385C166.983 15.1427 167.149 14.3369 167.316 13.0274H172.513L172.313 14.2697Z" fill="#00A1E4"/>
<path d="M196.568 24.5439C196.282 26.6614 195.196 28.5859 193.536 29.916C191.669 31.1621 189.479 31.8276 187.239 31.8299C184.241 31.8299 180.576 31.0912 181.276 27.1628H186.04C185.972 27.3965 185.973 27.6453 186.044 27.8781C186.116 28.1109 186.253 28.3175 186.44 28.4723C186.856 28.7396 187.346 28.8688 187.839 28.8416C190.138 28.8416 190.837 27.3643 191.171 25.484L191.504 23.9395C190.885 24.6293 190.121 25.1712 189.268 25.5255C188.415 25.8799 187.494 26.0378 186.573 25.9877C182.675 25.9877 181.309 22.6301 182.042 19.2725C182.338 17.4265 183.267 15.7435 184.667 14.5166C186.067 13.2896 187.85 12.5963 189.705 12.5573C190.451 12.4659 191.207 12.6319 191.848 13.0281C192.489 13.4244 192.979 14.0276 193.236 14.7398V14.7398L193.803 12.7588H198.8L196.568 24.5439ZM190.738 15.3441C188.639 15.3441 187.739 17.493 187.406 19.1718C187.073 20.8506 187.073 22.9994 189.172 22.9994C191.271 22.9994 192.17 20.8506 192.503 19.1718C192.836 17.493 192.836 15.3441 190.738 15.3441Z" fill="#00A1E4"/>
<path d="M69.9648 52.1433L74.1294 32.4678H79.5267L75.3621 52.1433H69.9648Z" fill="#005BAA"/>
<path d="M81.5923 32.4678H89.1219L92.4535 47.1405L95.5186 32.535H100.616L96.6181 52.1433H88.9553L85.6236 37.1013L82.4585 52.1433H77.4277L81.5923 32.4678Z" fill="#005BAA"/>
<path d="M104.148 52.1433H98.7504L102.882 32.4678H116.608L115.808 36.2955H107.513L106.613 40.8618H114.409L113.61 44.6894H105.747L104.148 52.1433Z" fill="#005BAA"/>
<path d="M115.242 42.3055C115.691 39.3973 117.192 36.7594 119.456 34.8996C121.719 33.0399 124.586 32.09 127.503 32.2328C133.966 32.2328 136.798 35.9933 135.465 42.3055C135.041 45.2261 133.561 47.886 131.311 49.7756C129.061 51.6653 126.198 52.6518 123.271 52.5462C116.608 52.5462 113.876 48.7857 115.242 42.3055ZM126.603 35.8926C122.938 35.8926 121.439 39.2501 120.806 42.4063C120.173 45.5624 120.206 48.7521 123.904 48.7521C127.603 48.7521 129.035 45.3945 129.668 42.4063C130.301 39.418 130.368 35.8926 126.603 35.8926Z" fill="#005BAA"/>
<path d="M142.428 41.0297C142.856 40.0481 143.586 39.2311 144.51 38.6991C145.434 38.1672 146.503 37.9484 147.559 38.075L146.593 42.4399H145.493C142.828 42.4399 141.562 44.0851 141.096 46.704L139.963 52.1768H134.932L137.098 42.1041C137.351 40.997 137.54 39.8759 137.664 38.7465H142.895L142.428 41.0297Z" fill="#005BAA"/>
<path d="M153.989 52.1432C154.014 51.5177 154.115 50.8975 154.289 50.2966V50.2966C153.712 51.0145 152.98 51.5902 152.148 51.98C151.317 52.3698 150.408 52.5634 149.492 52.5462C146.16 52.5462 144.96 50.8002 145.627 48.0134C146.36 44.6558 149.691 43.3128 154.123 43.3128H155.722C155.988 42.1377 156.621 40.3917 154.556 40.4589C154.027 40.5299 153.537 40.7764 153.163 41.1595C152.789 41.5425 152.552 42.0403 152.49 42.5741H147.593C147.751 41.7373 148.123 40.9566 148.672 40.309C149.222 39.6613 149.929 39.1691 150.724 38.8808C152.27 38.3069 153.909 38.0334 155.555 38.075C158.32 38.075 161.386 39.2501 160.686 42.3055L159.22 49.3565C159.22 49.9272 159.22 50.498 158.92 52.1432H153.989ZM151.957 49.5579C154.156 49.5579 154.789 47.4426 155.289 45.6295C154.323 45.5452 153.351 45.6477 152.423 45.9317C152.002 46.0542 151.62 46.2862 151.316 46.6045C151.012 46.9227 150.797 47.316 150.691 47.7448C150.623 47.9494 150.604 48.1673 150.635 48.3807C150.666 48.5942 150.746 48.7974 150.869 48.9738C150.992 49.1503 151.155 49.2951 151.344 49.3965C151.533 49.498 151.743 49.5533 151.957 49.5579V49.5579Z" fill="#005BAA"/>
<path d="M168.449 39.9888C169.058 39.3699 169.786 38.8814 170.587 38.5526C171.389 38.2237 172.248 38.0613 173.113 38.075C173.74 37.999 174.377 38.0833 174.963 38.3202C175.55 38.5571 176.068 38.939 176.469 39.4307C176.871 39.9224 177.143 40.508 177.261 41.1337C177.379 41.7593 177.339 42.4048 177.144 43.0107L175.212 52.1433H170.081L171.78 44.1187C172.014 42.7756 171.98 41.3319 170.381 41.3319C167.849 41.3319 167.582 44.1522 167.549 44.2865L165.883 52.1433H160.753L162.918 42.0705C163.151 40.8618 163.318 40.056 163.485 38.7129H168.682L168.449 39.9888Z" fill="#005BAA"/>
<path d="M192.67 50.3637C192.392 52.4933 191.305 54.4312 189.638 55.7695C187.771 57.0155 185.581 57.681 183.341 57.6833C180.343 57.6833 176.678 56.9446 177.344 52.9827H182.142C182.075 53.2217 182.078 53.4749 182.148 53.7127C182.219 53.9504 182.355 54.1631 182.542 54.3257C182.965 54.5781 183.449 54.706 183.941 54.695C186.24 54.695 186.939 53.2177 187.273 51.3374L187.606 49.793C187.005 50.4939 186.257 51.0507 185.415 51.4225C184.573 51.7943 183.66 51.9717 182.741 51.9418C178.843 51.9418 177.477 48.7857 178.244 45.2266C178.526 43.3807 179.447 41.6946 180.843 40.4659C182.238 39.2373 184.02 38.5451 185.873 38.5115C186.661 38.407 187.46 38.5899 188.126 39.027C188.792 39.4642 189.281 40.1268 189.505 40.8954V40.8954L190.038 38.9144H195.035L192.67 50.3637ZM186.906 41.0632C184.807 41.0632 183.874 43.1785 183.574 44.8909C183.275 46.6033 183.241 48.685 185.34 48.685C187.439 48.685 188.339 46.5697 188.672 44.8909C189.005 43.2121 189.005 41.0632 186.906 41.0632Z" fill="#005BAA"/>
<path d="M37.2813 13.4303C37.2812 14.2286 37.0459 15.0089 36.6051 15.6722C36.1643 16.3355 35.5379 16.8519 34.8054 17.1558C34.073 17.4597 33.2674 17.5376 32.491 17.3793C31.7145 17.2211 31.0022 16.8341 30.4445 16.2672C29.8867 15.7004 29.5086 14.9793 29.3581 14.1956C29.2076 13.4118 29.2915 12.6006 29.5993 11.865C29.907 11.1294 30.4246 10.5025 31.0864 10.0638C31.7483 9.62519 32.5245 9.39455 33.3166 9.4012C34.3711 9.41006 35.3795 9.83846 36.1221 10.5931C36.8647 11.3477 37.2813 12.3675 37.2813 13.4303V13.4303Z" fill="#005BAA"/>
<path d="M29.7517 -6.32775e-06C25.3168 -0.00853885 20.9359 0.981122 16.929 2.89673C12.922 4.81233 9.39012 7.60553 6.59112 11.0724C3.79212 14.5393 1.79667 18.5923 0.750444 22.9356C-0.295783 27.2789 -0.366377 31.8028 0.543817 36.1771C1.45401 40.5514 3.32202 44.6657 6.01146 48.2196C8.70091 51.7734 12.1439 54.6771 16.0891 56.7188C20.0343 58.7604 24.3821 59.8884 28.8151 60.0204C33.2481 60.1524 37.6544 59.2851 41.7123 57.4818V57.4818C38.9001 56.964 36.1745 56.0484 33.6164 54.7622V54.7622C32.3485 54.9553 31.0672 55.0452 29.785 55.0308C24.6845 55.0258 19.7093 53.4373 15.5364 50.4815C11.3635 47.5258 8.19551 43.3462 6.46339 38.5115L18.6906 28.9424C20.9882 27.2057 23.7812 26.2635 26.6532 26.2563C27.2577 26.2368 27.8595 26.3441 28.4206 26.5714C28.9817 26.7987 29.4898 27.141 29.9127 27.5767C30.3356 28.0123 30.6641 28.5318 30.8772 29.1021C31.0904 29.6724 31.1836 30.2812 31.151 30.8897C31.151 34.7845 26.3201 36.1612 26.3201 41.9362C26.2372 44.5469 26.9451 47.1211 28.3497 49.3164C29.7543 51.5116 31.7889 53.2238 34.1828 54.2249L34.9158 54.5271C36.2598 54.9723 37.6656 55.199 39.0803 55.1986C41.7569 55.1184 44.388 54.4803 46.8078 53.3245C49.2275 52.1688 51.3835 50.5205 53.1399 48.4835V48.4835C53.8993 47.5197 54.6003 46.5106 55.2389 45.4617C57.9487 40.9106 59.4128 35.7169 59.4817 30.4098C59.5507 25.1028 58.2222 19.8722 55.6315 15.2512C53.0408 10.6302 49.2807 6.78414 44.7344 4.10496C40.1881 1.42578 35.0182 0.00933447 29.7517 -6.32775e-06V-6.32775e-06ZM51.5074 42.1376C50.1667 44.5894 48.4202 46.7924 46.3433 48.6514C43.5 51.0156 40.0183 52.4659 36.3484 52.8148H35.7154C33.8609 52.6839 32.1145 51.8868 30.7939 50.5682C29.4733 49.2496 28.666 47.4972 28.519 45.6295C28.519 36.7991 39.147 34.751 39.147 26.2563C39.1983 25.4134 39.0747 24.5689 38.7841 23.7768C38.4935 22.9847 38.0422 22.2624 37.4592 21.6558C36.8761 21.0492 36.174 20.5718 35.3976 20.254C34.6213 19.9361 33.7877 19.7848 32.9501 19.8097C28.0525 19.8097 23.3216 23.5031 20.4897 25.8198L5.93032 37.1349C4.932 33.6947 4.67794 30.0786 5.18531 26.531C5.69267 22.9834 6.94965 19.5868 8.87131 16.5707C10.793 13.5547 13.3346 10.9894 16.3244 9.04817C19.3142 7.10694 22.6826 5.83499 26.2021 5.31825C29.7216 4.80151 33.3101 5.05201 36.7252 6.05283C40.1404 7.05365 43.3026 8.78148 45.9983 11.1196C48.694 13.4577 50.8603 16.3517 52.351 19.6059C53.8417 22.8602 54.622 26.399 54.6392 29.9832C54.6512 34.2389 53.5724 38.4255 51.5074 42.1376V42.1376Z" fill="#034EA2"/>
</svg>
