<svg width="24" height="25" viewBox="0 0 24 25" fill="none" xmlns="http://www.w3.org/2000/svg">
<path d="M12 3.5C11.175 3.5 10.5 4.175 10.5 5C10.5 5.825 11.175 6.5 12 6.5C12.825 6.5 13.5 5.825 13.5 5C13.5 4.175 12.825 3.5 12 3.5ZM12 18.5C11.175 18.5 10.5 19.175 10.5 20C10.5 20.825 11.175 21.5 12 21.5C12.825 21.5 13.5 20.825 13.5 20C13.5 19.175 12.825 18.5 12 18.5ZM12 11C11.175 11 10.5 11.675 10.5 12.5C10.5 13.325 11.175 14 12 14C12.825 14 13.5 13.325 13.5 12.5C13.5 11.675 12.825 11 12 11Z" fill="#222222"/>
</svg>
