<svg width="13" height="12" viewBox="0 0 13 12" fill="none" xmlns="http://www.w3.org/2000/svg">
<path d="M11.2285 5.0625H7.4375V1.27148C7.4375 0.776367 7.01855 0.375 6.5 0.375C5.98145 0.375 5.5625 0.776367 5.5625 1.27148V5.0625H1.77148C1.27637 5.0625 0.875 5.48145 0.875 6C0.875 6.51855 1.27637 6.9375 1.77148 6.9375H5.5625V10.7285C5.5625 11.2236 5.98145 11.625 6.5 11.625C7.01855 11.625 7.4375 11.2236 7.4375 10.7285V6.9375H11.2285C11.7236 6.9375 12.125 6.51855 12.125 6C12.125 5.48145 11.7236 5.0625 11.2285 5.0625Z" />
</svg>
