<svg width="16" height="16" viewBox="0 0 16 16" fill="none" xmlns="http://www.w3.org/2000/svg">
<path d="M8 0.6875C6.55373 0.6875 5.13993 1.11637 3.9374 1.91988C2.73486 2.72339 1.7976 3.86544 1.24413 5.20163C0.690668 6.53781 0.545857 8.00811 0.828011 9.4266C1.11017 10.8451 1.80661 12.148 2.82928 13.1707C3.85196 14.1934 5.15492 14.8898 6.57341 15.172C7.99189 15.4541 9.46219 15.3093 10.7984 14.7559C12.1346 14.2024 13.2766 13.2651 14.0801 12.0626C14.8836 10.8601 15.3125 9.44628 15.3125 8C15.3088 6.06175 14.5372 4.20394 13.1666 2.83339C11.7961 1.46283 9.93826 0.691217 8 0.6875ZM10.8125 8.5625H5.1875C5.03832 8.5625 4.89525 8.50324 4.78976 8.39775C4.68427 8.29226 4.625 8.14918 4.625 8C4.625 7.85082 4.68427 7.70774 4.78976 7.60225C4.89525 7.49676 5.03832 7.4375 5.1875 7.4375H10.8125C10.9617 7.4375 11.1048 7.49676 11.2103 7.60225C11.3157 7.70774 11.375 7.85082 11.375 8C11.375 8.14918 11.3157 8.29226 11.2103 8.39775C11.1048 8.50324 10.9617 8.5625 10.8125 8.5625Z" fill="#777777"/>
</svg>
